<?xml version="1.0" encoding="utf-8"?>
<!-- Generator: Adobe Illustrator 16.0.0, SVG Export Plug-In . SVG Version: 6.00 Build 0)  -->
<!DOCTYPE svg PUBLIC "-//W3C//DTD SVG 1.1//EN" "http://www.w3.org/Graphics/SVG/1.1/DTD/svg11.dtd">
<svg version="1.1" id="Layer_1" xmlns="http://www.w3.org/2000/svg" xmlns:xlink="http://www.w3.org/1999/xlink" x="0px" y="0px"
	 width="612px" height="527px" viewBox="0 0 612 527" enable-background="new 0 0 612 527" xml:space="preserve">
<g>
	<path fill="#FF0033" d="M72.101,186.075c-18.69,0-32.708-4.424-42.053-13.274c-9.345-8.847-14.018-21.345-14.018-37.486
		c0-5.804,0.531-11.363,1.593-16.672c1.062-5.31,2.867-10.301,5.416-14.973c4.955-8.92,11.608-15.893,19.964-20.92
		c8.353-5.024,18.266-7.54,29.734-7.54c5.097,0,9.982,0.637,14.655,1.912c4.672,1.274,8.99,3.116,12.956,5.522
		c5.379,3.259,10.194,7.719,14.442,13.38c4.248,5.665,7.573,12.036,9.982,19.115c2.406,7.082,3.611,14.515,3.611,22.301
		c0,16.141-4.746,28.284-14.23,36.424C104.666,182.006,90.648,186.075,72.101,186.075z M52.137,48.661
		c-5.097,0-8.993-1.626-11.681-4.885c-2.691-3.255-4.036-7.291-4.036-12.106c0-4.955,1.344-9.026,4.036-12.212
		c2.688-3.186,6.584-4.778,11.681-4.778c4.955,0,8.777,1.523,11.469,4.566c2.688,3.046,4.036,7.188,4.036,12.424
		c0,5.24-1.417,9.382-4.248,12.425C60.559,47.141,56.809,48.661,52.137,48.661z M71.464,153.792c6.511,0,10.901-1.769,13.168-5.31
		c2.263-3.538,3.398-8.071,3.398-13.593c0-4.955-0.71-9.557-2.124-13.805c-1.417-4.248-3.398-7.679-5.947-10.301
		c-2.549-2.618-5.453-3.929-8.708-3.929c-3.684,0-6.727,1.135-9.133,3.398c-2.409,2.267-4.214,5.452-5.416,9.557
		c-1.205,4.108-1.806,8.92-1.806,14.442c0,5.665,1.168,10.337,3.504,14.018C60.738,151.954,65.092,153.792,71.464,153.792z
		 M94.189,48.661c-4.815,0-8.638-1.557-11.469-4.673c-2.834-3.113-4.248-7.221-4.248-12.318c0-5.236,1.414-9.378,4.248-12.424
		c2.831-3.043,6.654-4.566,11.469-4.566c4.812,0,8.602,1.486,11.363,4.46c2.761,2.974,4.141,7.151,4.141,12.531
		c0,5.24-1.453,9.382-4.354,12.425C102.436,47.141,98.719,48.661,94.189,48.661z"/>
	<path fill="#FF0033" d="M232.876,183.951v2.336c0,10.194-2.303,19.291-6.903,27.292c-4.603,7.998-11.044,14.3-19.327,18.902
		c-8.283,4.6-17.947,6.903-28.991,6.903c-6.515,0-13.205-0.992-20.071-2.974c-6.869-1.984-14.336-5.665-22.407-11.044l14.23-30.159
		c4.105,2.263,8.071,4.036,11.894,5.31c3.823,1.274,7.291,1.911,10.407,1.911c5.947,0,10.832-1.911,14.655-5.734
		c3.823-3.823,5.734-8.356,5.734-13.593V77.333h40.778v75.185h28.46c0.707,0,1.062,0.285,1.062,0.849v29.522
		c0,0.71-0.355,1.062-1.062,1.062H232.876z"/>
	<path fill="#FF0033" d="M259.21,183.951c-0.707,0-1.062-0.352-1.062-1.062v-29.522c0-0.564,0.355-0.849,1.062-0.849h24.425V22.537
		h40.778v86.441c4.105-7.221,9.203-13.344,15.292-18.372c6.086-5.024,12.707-8.847,19.858-11.469
		c7.148-2.619,14.336-3.929,21.558-3.929c17.13,0,30.653,4.779,40.565,14.336c9.909,9.558,14.867,24.106,14.867,43.646v19.328
		h27.186c0.707,0,1.063,0.285,1.063,0.849v29.522c0,0.71-0.355,1.062-1.063,1.062H259.21z M395.775,152.518v-21.026
		c0-7.928-2.16-14.051-6.478-18.372c-4.321-4.317-10.656-6.478-19.009-6.478c-4.815,0-10.019,1.241-15.61,3.717
		c-5.596,2.479-11.044,5.947-16.354,10.407c-5.311,4.46-9.949,9.736-13.912,15.823v15.929H395.775z"/>
	<path fill="#FF0033" d="M461.613,183.951c-0.707,0-1.063-0.352-1.063-1.062v-29.522c0-0.564,0.355-0.849,1.063-0.849h31.646
		c-2.691-1.699-5.098-3.962-7.222-6.796c-2.124-2.831-3.859-6.053-5.203-9.664c-1.348-3.61-2.018-7.397-2.018-11.362
		c0-9.484,2.618-17.768,7.858-24.85c5.236-7.078,12.85-12.601,22.831-16.566c9.982-3.962,22.052-5.947,36.212-5.947h44.39v106.618
		H461.613z M510.037,57.156c-5.098,0-8.993-1.626-11.682-4.885c-2.691-3.255-4.035-7.291-4.035-12.106
		c0-4.955,1.344-9.026,4.035-12.212c2.688-3.186,6.584-4.779,11.682-4.779c4.955,0,8.777,1.523,11.469,4.566
		c2.688,3.046,4.035,7.188,4.035,12.425c0,5.24-1.417,9.381-4.247,12.425C518.46,55.636,514.71,57.156,510.037,57.156z
		 M544.656,152.518h5.31v-43.752h-3.61c-5.522,0-10.374,0.78-14.549,2.336c-4.178,1.56-7.434,3.929-9.77,7.115
		c-2.336,3.186-3.505,7.188-3.505,12c0,4.815,1.308,8.887,3.93,12.212c2.618,3.328,5.91,5.84,9.876,7.54
		C536.3,151.668,540.408,152.518,544.656,152.518z M552.09,57.156c-4.815,0-8.639-1.557-11.469-4.673
		c-2.834-3.113-4.248-7.221-4.248-12.318c0-5.237,1.414-9.378,4.248-12.425c2.83-3.043,6.653-4.566,11.469-4.566
		c4.812,0,8.602,1.487,11.362,4.46c2.762,2.973,4.142,7.151,4.142,12.531c0,5.24-1.453,9.381-4.354,12.425
		C560.336,55.636,556.62,57.156,552.09,57.156z"/>
	<path fill="#FF0033" d="M158.967,438.816c-1.984,17.555-9.099,30.971-21.345,40.246c-12.249,9.273-28.072,13.912-47.469,13.912
		h-2.973c-7.932,0-14.94-0.604-21.026-1.805c-6.09-1.205-11.612-3.01-16.566-5.416c-10.762-5.383-18.902-13.418-24.424-24.105
		c-5.522-10.693-8.283-22.268-8.283-34.727c0-5.098,0.495-10.264,1.487-15.504c0.989-5.236,2.406-10.334,4.248-15.291
		c1.838-4.956,4.036-9.628,6.584-14.018H64.03c-2.124,8.495-3.859,16.389-5.204,23.68c-1.347,7.295-2.018,13.561-2.018,18.797
		c0,10.48,2.761,18.723,8.283,24.742c5.522,6.018,12.743,9.027,21.664,9.027h2.548c6.796,0,12.388-1.381,16.779-4.141
		c4.387-2.762,7.646-6.658,9.77-11.682c2.124-5.025,3.186-11.008,3.186-17.947V277.402h40.141v129.981h30.584
		c0.707,0,1.062,0.285,1.062,0.85v29.521c0,0.711-0.355,1.063-1.062,1.063H158.967z"/>
	<path fill="#FF0033" d="M187.638,438.816c-0.707,0-1.062-0.352-1.062-1.063v-29.521c0-0.564,0.355-0.85,1.062-0.85h25.486
		c-1.984-3.256-3.79-7.115-5.416-11.576c-1.629-4.46-2.442-9.521-2.442-15.186c0-5.804,0.813-12.176,2.442-19.114
		c1.626-6.937,4.636-13.45,9.026-19.54c7.36-4.104,14.724-7.291,22.088-9.558c7.36-2.263,14.794-3.397,22.3-3.397
		c5.662,0,10.902,0.53,15.717,1.593c4.812,1.062,9.415,2.654,13.805,4.778c8.778,4.248,15.61,10.443,20.496,18.584
		c4.885,8.144,7.327,17.24,7.327,27.292c0,5.664-0.78,11.15-2.336,16.459c-1.56,5.311-4.108,10.656-7.646,16.035
		c-4.815,7.363-12.179,13.381-22.088,18.053c-9.913,4.674-21.381,7.01-34.407,7.01H187.638z M244.983,384.02
		c0,4.248,0.458,8.39,1.38,12.425c0.919,4.035,2.087,7.682,3.504,10.938h6.372c3.68,0,7.185-0.85,10.513-2.549
		c3.325-1.699,6.053-4.354,8.177-7.965c2.124-3.61,3.186-8.104,3.186-13.486c0-6.654-1.736-11.821-5.204-15.505
		c-3.471-3.68-7.613-5.521-12.424-5.521c-2.124,0-4.285,0.318-6.478,0.955c-2.197,0.638-4.284,1.736-6.266,3.292
		c-0.992,2.834-1.699,5.841-2.124,9.026C245.195,378.817,244.983,381.614,244.983,384.02z"/>
	<path fill="#FF0033" d="M347.988,264.658l12.53-2.336c-2.691-1.274-5.027-3.219-7.009-5.841c-1.984-2.618-2.974-5.698-2.974-9.239
		c0-6.511,2.23-11.645,6.69-15.398c4.46-3.75,10.371-5.628,17.734-5.628c7.785,0,14.369,1.629,19.752,4.885l-4.885,12.531
		c-1.984-0.989-4.002-1.699-6.053-2.124c-2.055-0.425-4.072-0.637-6.054-0.637c-3.115,0-5.488,0.922-7.114,2.761
		c-1.63,1.842-2.442,4.178-2.442,7.008c0,2.124,0.67,3.966,2.018,5.522c1.344,1.56,3.079,2.691,5.203,3.398
		c2.264-0.425,4.6-0.776,7.009-1.062c2.406-0.282,4.779-0.564,7.115-0.85c2.336-0.282,4.281-0.494,5.841-0.637v15.716
		c-2.549,0.143-5.947,0.425-10.195,0.85c-4.247,0.425-8.744,0.923-13.486,1.487c-4.745,0.567-9.238,1.135-13.486,1.699
		c-4.248,0.567-7.646,1.062-10.194,1.486V264.658z M350.536,290.145h40.566v148.671h-40.566V290.145z"/>
</g>
</svg>
